<svg xmlns="http://www.w3.org/2000/svg" width="540.995" height="498.497" viewBox="0 0 540.995 498.497">
  <g id="illustration-intro" transform="translate(0 13.497)">
    <rect id="Rectangle_2" data-name="Rectangle 2" width="260" height="235" rx="4"/>
    <rect id="Rectangle_3" data-name="Rectangle 3" width="260" height="235" rx="4" fill="#fff"/>
    <path id="Path_1" data-name="Path 1" d="M16.208,16.207H246.494V218.793H16.208Z" fill="#fafafa" stroke="#e5e9ea" stroke-width="1" fill-rule="evenodd"/>
    <path id="Path_2" data-name="Path 2" d="M16.208,117.5H246.494v1H16.208Zm0,18.993H246.494v1H16.208Zm0,18.992H246.494v1H16.208Zm0,18.992H246.494v1H16.208Zm0-132.947H246.494v1H16.208Zm0-18.992H246.494v1H16.208Zm0,37.985H246.494v1H16.208Zm0,18.992H246.494v1H16.208Zm0,18.993H246.494v1H16.208Zm0,94.962H246.494v1H16.208Zm0,18.992H246.494v1H16.208Z" fill="#e5e9ea" fill-rule="evenodd"/>
    <path id="Path_3" data-name="Path 3" d="M22.286,117.5H53.351v45.647a5,5,0,0,1-5,5H27.286a5,5,0,0,1-5-5Z" fill="#242d52" fill-rule="evenodd"/>
    <path id="Path_4" data-name="Path 4" d="M22.286,117.5H53.351v32.985a5,5,0,0,1-5,5H27.286a5,5,0,0,1-5-5Zm47.272-.266h31.065V82.658a5,5,0,0,0-5-5H74.558a5,5,0,0,0-5,5v34.576Z" fill="#00a359" fill-rule="evenodd"/>
    <path id="Path_5" data-name="Path 5" d="M69.558,117.234h31.065v51.99a5,5,0,0,1-5,5H74.558a5,5,0,0,1-5-5v-51.99Zm92.52.266h31.065V46.193a5,5,0,0,0-5-5H167.078a5,5,0,0,0-5,5Z" fill="#242d52" fill-rule="evenodd"/>
    <path id="Path_6" data-name="Path 6" d="M162.078,117.5h31.065V65.27a5,5,0,0,0-5-5H167.078a5,5,0,0,0-5,5Z" fill="#00a359" fill-rule="evenodd"/>
    <g id="Group_1" data-name="Group 1">
      <path id="Path_7" data-name="Path 7" d="M209.351,117.5h31.065v58.477a5,5,0,0,1-5,5H214.35a5,5,0,0,1-5-5V117.5Z" fill="#242d52" fill-rule="evenodd"/>
      <path id="Path_8" data-name="Path 8" d="M209.351,117.5h31.065v45.782a5,5,0,0,1-5,5H214.35a5,5,0,0,1-5-5V117.5Z" fill="#00a359" fill-rule="evenodd"/>
    </g>
    <g id="Group_2" data-name="Group 2">
      <path id="Path_9" data-name="Path 9" d="M115.481,117.5h31.065v90.216a5,5,0,0,1-5,5H120.48a5,5,0,0,1-5-5V117.5Z" fill="#00a359" fill-rule="evenodd"/>
      <path id="Path_10" data-name="Path 10" d="M115.481,117.5h31.065v33.086a5,5,0,0,1-5,5H120.48a5,5,0,0,1-5-5V117.5Z" fill="#242d52" fill-rule="evenodd"/>
    </g>
    <g id="Group_4" data-name="Group 4" transform="translate(280)">
      <rect id="Rectangle_4" data-name="Rectangle 4" width="260" height="235" rx="4"/>
      <rect id="Rectangle_5" data-name="Rectangle 5" width="260" height="235" rx="4" fill="#fff"/>
      <g id="Group_3" data-name="Group 3" transform="matrix(0.985, -0.174, 0.174, 0.985, 64.552, 71.677)">
        <ellipse id="Ellipse_2" data-name="Ellipse 2" cx="58.226" cy="58.222" rx="58.226" ry="58.222" transform="translate(-1.729 -1.73)" fill="none" stroke="#00a359" stroke-width="80" stroke-dasharray="502"/>
        <path id="Ellipse_3" data-name="Ellipse 3" d="M58.575,0A58.571,58.571,0,1,1,0,58.571,58.573,58.573,0,0,1,58.575,0Z" transform="matrix(0.259, 0.966, -0.966, 0.259, 97.912, -15.246)" fill="none" stroke="#292452" stroke-width="80" stroke-dasharray="340"/>
        <ellipse id="Ellipse_1" data-name="Ellipse 1" cx="36.31" cy="36.306" rx="36.31" ry="36.306" transform="translate(20.187 20.186)" fill="none" stroke="#fff" stroke-width="40"/>
      </g>
    </g>
    <g id="Group_8" data-name="Group 8" transform="translate(140 250)">
      <rect id="Rectangle_6" data-name="Rectangle 6" width="260" height="235" rx="4"/>
      <rect id="Rectangle_7" data-name="Rectangle 7" width="260" height="235" rx="4" fill="#fff"/>
      <g id="Group_5" data-name="Group 5" transform="translate(16.208 140.46)">
        <rect id="Rectangle_8" data-name="Rectangle 8" width="106.026" height="78.333" rx="4" fill="#00a359"/>
        <path id="Path_11" data-name="Path 11" d="M23.044,59.413V55.506h3.9v-1.78h-3.9V49.818H21.263v3.907H17.355V55.5h3.908v3.908h1.78Zm12.264,2.038V47.345H33.15l-3.433,3v2.374l3.314-2.977V61.45h2.276Zm6.437.2a1.349,1.349,0,0,0,.984-.406,1.38,1.38,0,0,0,0-1.963,1.4,1.4,0,0,0-2.379.984,1.323,1.323,0,0,0,.416.974,1.345,1.345,0,0,0,.979.41Zm8.584-.01a4.781,4.781,0,0,0,3.517-1.33,4.713,4.713,0,0,0,1.34-3.5,4.2,4.2,0,0,0-1.316-3.32,5.848,5.848,0,0,0-3.97-1.16H48.36l.307-2.918h5.876V47.355H46.68l-.732,6.914h3.63q3.315,0,3.314,2.622a2.648,2.648,0,0,1-.7,1.914,2.527,2.527,0,0,1-1.915.727,2.758,2.758,0,0,1-1.805-.613,2.244,2.244,0,0,1-.747-1.84,5.1,5.1,0,0,1,.07-.712l-2.286.138a6.371,6.371,0,0,0-.05.712,4.2,4.2,0,0,0,2.454,3.922,5.72,5.72,0,0,0,2.414.5Zm9.207-8.29a2.96,2.96,0,0,0,2.186-.91,3.04,3.04,0,0,0,.9-2.2,3,3,0,0,0-.9-2.187,3.1,3.1,0,0,0-5.282,2.187,3.012,3.012,0,0,0,.9,2.205,2.975,2.975,0,0,0,2.191.91Zm1.088,8.112,7.46-14.136H66.1L58.666,61.461h1.958Zm-1.088-9.684a1.545,1.545,0,0,1-1.543-1.543,1.45,1.45,0,0,1,.455-1.084,1.541,1.541,0,0,1,2.181,2.177,1.467,1.467,0,0,1-1.093.45Zm7.785,9.842a2.933,2.933,0,0,0,2.172-.91,3.117,3.117,0,0,0,0-4.377,2.945,2.945,0,0,0-2.167-.905,3.1,3.1,0,1,0,0,6.192Zm0-1.563a1.528,1.528,0,1,1,1.544-1.533,1.47,1.47,0,0,1-.455,1.083,1.5,1.5,0,0,1-1.089.45Z" fill="#fff"/>
      </g>
      <g id="Group_6" data-name="Group 6" transform="translate(137.766 140.46)">
        <rect id="Rectangle_9" data-name="Rectangle 9" width="106.026" height="78.333" rx="4" fill="#fafafa"/>
        <path id="Path_12" data-name="Path 12" d="M22.1,61.639a6.055,6.055,0,0,0,2.522-.5,4.186,4.186,0,0,0,1.776-1.5,4.028,4.028,0,0,0,.658-2.285,3.836,3.836,0,0,0-.653-2.226,4.118,4.118,0,0,0-1.77-1.444,3.524,3.524,0,0,0,1.246-1.212,3.14,3.14,0,0,0,.455-1.667,3.292,3.292,0,0,0-1.2-2.626A4.515,4.515,0,0,0,22.1,47.147a4.588,4.588,0,0,0-3.067,1.02,3.282,3.282,0,0,0-1.2,2.633,3.086,3.086,0,0,0,.465,1.667,3.557,3.557,0,0,0,1.276,1.212,4,4,0,0,0-1.785,1.434,3.871,3.871,0,0,0-.648,2.236,4.036,4.036,0,0,0,.658,2.285,4.147,4.147,0,0,0,1.78,1.5,6.047,6.047,0,0,0,2.528.51Zm0-8.665a2.149,2.149,0,0,1-1.533-.589,1.926,1.926,0,0,1-.624-1.459,1.874,1.874,0,0,1,.624-1.43,2.307,2.307,0,0,1,3.056,0,1.87,1.87,0,0,1,.624,1.429,1.923,1.923,0,0,1-.629,1.454,2.131,2.131,0,0,1-1.518.594Zm0,6.607a2.772,2.772,0,0,1-1.92-.682,2.326,2.326,0,0,1-.761-1.82,2.269,2.269,0,0,1,.762-1.79,3.047,3.047,0,0,1,3.819,0,2.274,2.274,0,0,1,.761,1.79A2.327,2.327,0,0,1,24,58.894a2.729,2.729,0,0,1-1.9.687ZM33.18,61.64a6.055,6.055,0,0,0,2.522-.505,4.186,4.186,0,0,0,1.776-1.5,4.028,4.028,0,0,0,.658-2.285,3.836,3.836,0,0,0-.653-2.226,4.118,4.118,0,0,0-1.77-1.444,3.524,3.524,0,0,0,1.246-1.212,3.14,3.14,0,0,0,.455-1.667,3.292,3.292,0,0,0-1.2-2.626,4.515,4.515,0,0,0-3.032-1.024,4.588,4.588,0,0,0-3.067,1.02,3.282,3.282,0,0,0-1.207,2.63,3.086,3.086,0,0,0,.465,1.667,3.557,3.557,0,0,0,1.276,1.212,4,4,0,0,0-1.785,1.434,3.871,3.871,0,0,0-.648,2.236,4.036,4.036,0,0,0,.658,2.285,4.147,4.147,0,0,0,1.78,1.5,6.047,6.047,0,0,0,2.526.505Zm0-8.665a2.153,2.153,0,0,1-1.534-.589,1.926,1.926,0,0,1-.623-1.459,1.876,1.876,0,0,1,.623-1.43,2.309,2.309,0,0,1,3.057,0,1.869,1.869,0,0,1,.623,1.429A1.922,1.922,0,0,1,34.7,52.38a2.131,2.131,0,0,1-1.518.594Zm0,6.607a2.77,2.77,0,0,1-1.92-.682,2.326,2.326,0,0,1-.761-1.82,2.269,2.269,0,0,1,.762-1.79,3.047,3.047,0,0,1,3.819,0,2.274,2.274,0,0,1,.76,1.79,2.329,2.329,0,0,1-.76,1.816A2.735,2.735,0,0,1,33.18,59.582Zm8.435,2.068a1.35,1.35,0,0,0,.985-.406,1.38,1.38,0,0,0,0-1.963,1.4,1.4,0,0,0-2.379.984,1.322,1.322,0,0,0,.415.974,1.347,1.347,0,0,0,.98.41Zm13.313-.2V59.394h-6.51L52.564,55.1a8.478,8.478,0,0,0,1.464-1.948,4.309,4.309,0,0,0,.465-1.989,3.69,3.69,0,0,0-1.257-2.957A4.783,4.783,0,0,0,50,47.128a4.648,4.648,0,0,0-3.344,1.178,4.437,4.437,0,0,0-1.237,3.373v.791l2.266.218V51.649a2.753,2.753,0,0,1,.623-2,2.623,2.623,0,0,1,3.334-.059,2.076,2.076,0,0,1,.6,1.587,4.135,4.135,0,0,1-1.414,2.77l-5.64,5.787v1.721h9.735Zm9.7,0V58.69h1.939V56.644h-1.94v-9.3H61.16l-5.431,9.289V58.69h6.628v2.76h2.275Zm-2.275-4.808h-4.41l4.412-7.834Zm8.129-3.294a2.96,2.96,0,0,0,2.186-.91,3.04,3.04,0,0,0,.9-2.2,3,3,0,0,0-.9-2.187,3.1,3.1,0,0,0-5.283,2.187,3.012,3.012,0,0,0,.9,2.2,2.977,2.977,0,0,0,2.192.91ZM71.57,61.46l7.459-14.136H77.052L69.613,61.462Zm-1.088-9.684a1.5,1.5,0,0,1-1.089-.45,1.48,1.48,0,0,1-.455-1.093,1.45,1.45,0,0,1,.455-1.084,1.51,1.51,0,0,1,1.089-.44,1.484,1.484,0,0,1,1.088.445,1.468,1.468,0,0,1,.445,1.079,1.508,1.508,0,0,1-.44,1.093,1.469,1.469,0,0,1-1.093.45Zm7.785,9.842a2.932,2.932,0,0,0,2.171-.91,3.116,3.116,0,0,0,0-4.377,2.945,2.945,0,0,0-2.167-.905,3.1,3.1,0,1,0,0,6.192Zm0-1.563a1.528,1.528,0,1,1,1.543-1.533,1.47,1.47,0,0,1-.455,1.083,1.492,1.492,0,0,1-1.088.45Z" fill="#1e272e"/>
      </g>
      <g id="Group_7" data-name="Group 7" transform="translate(16.208 16.207)">
        <rect id="Rectangle_10" data-name="Rectangle 10" width="227.584" height="108.046" rx="4" fill="#fafafa"/>
        <path id="Path_13" data-name="Path 13" d="M28.786,84.812a12.949,12.949,0,0,0,5.381-1.076,8.928,8.928,0,0,0,3.788-3.208,8.6,8.6,0,0,0,1.4-4.875A8.178,8.178,0,0,0,37.966,70.9a8.787,8.787,0,0,0-3.778-3.08,7.515,7.515,0,0,0,2.66-2.586,6.7,6.7,0,0,0,.97-3.556,7.027,7.027,0,0,0-2.564-5.6A9.622,9.622,0,0,0,28.786,53.9a9.791,9.791,0,0,0-6.542,2.174,7.005,7.005,0,0,0-2.575,5.613,6.584,6.584,0,0,0,.992,3.556,7.569,7.569,0,0,0,2.722,2.585,8.55,8.55,0,0,0-3.81,3.06,8.264,8.264,0,0,0-1.381,4.77,8.6,8.6,0,0,0,1.4,4.874,8.844,8.844,0,0,0,3.8,3.2,12.9,12.9,0,0,0,5.392,1.087Zm0-18.486a4.583,4.583,0,0,1-3.271-1.256,4.1,4.1,0,0,1-1.33-3.112,4,4,0,0,1,1.33-3.05,4.923,4.923,0,0,1,6.52,0,4,4,0,0,1,1.33,3.05,4.1,4.1,0,0,1-1.34,3.1,4.546,4.546,0,0,1-3.24,1.266Zm0,14.1a5.9,5.9,0,0,1-4.094-1.457,4.954,4.954,0,0,1-1.625-3.882,4.843,4.843,0,0,1,1.625-3.82,5.956,5.956,0,0,1,4.094-1.435,5.9,5.9,0,0,1,4.052,1.435,4.846,4.846,0,0,1,1.625,3.82,4.967,4.967,0,0,1-1.625,3.872A5.823,5.823,0,0,1,28.786,80.426Zm21.737,3.988,9.729-12.873a12.142,12.142,0,0,0,2.659-7.28,10.106,10.106,0,0,0-1.435-5.329,9.9,9.9,0,0,0-3.894-3.682,11.943,11.943,0,0,0-10.847-.011,9.967,9.967,0,0,0-3.926,3.714,10.72,10.72,0,0,0-.042,10.678A9.344,9.344,0,0,0,46.323,73.1a9.656,9.656,0,0,0,4.685,1.182,9.31,9.31,0,0,0,1.9-.19l-8.02,10.319h5.635Zm1.73-13.76a5.893,5.893,0,0,1-6.162-6.161,5.818,5.818,0,0,1,1.73-4.421,6.1,6.1,0,0,1,4.432-1.7A5.7,5.7,0,0,1,58.31,64.45a6.157,6.157,0,0,1-1.7,4.42,5.749,5.749,0,0,1-4.358,1.784ZM69.917,84.833a2.881,2.881,0,0,0,2.1-.865,2.83,2.83,0,0,0,.876-2.09,2.976,2.976,0,1,0-5.951,0,2.823,2.823,0,0,0,.886,2.078,2.873,2.873,0,0,0,2.09.876Zm14.224-.422L98.3,58.181V54.318H77.389v4.369H92.837L78.612,84.41h5.53Zm34.378,0V78.523h4.137V74.155h-4.137V54.318h-7.407L99.526,74.134v4.39h14.14v5.887Zm-4.853-10.256h-9.413l9.413-16.713Zm17.094-7.027a6.314,6.314,0,0,0,4.664-1.942,6.49,6.49,0,0,0,1.92-4.706,6.4,6.4,0,0,0-1.92-4.663,6.606,6.606,0,0,0-11.27,4.663,6.427,6.427,0,0,0,1.931,4.706,6.35,6.35,0,0,0,4.675,1.942Zm2.321,17.3,15.913-30.156h-4.221L128.9,84.432Zm-2.321-20.66a3.3,3.3,0,0,1-3.292-3.292,3.088,3.088,0,0,1,.97-2.31,3.286,3.286,0,0,1,4.653,4.642,3.128,3.128,0,0,1-2.331.964Zm16.609,21A6.255,6.255,0,0,0,152,82.828a6.649,6.649,0,0,0-.01-9.338,6.287,6.287,0,0,0-4.622-1.93,6.6,6.6,0,1,0,0,13.209Zm0-3.335a3.3,3.3,0,1,1,2.321-.96,3.164,3.164,0,0,1-2.321.962Z" fill="#343a40"/>
      </g>
    </g>
  </g>
</svg>
